<?xml version="1.0" standalone="no"?>
<!DOCTYPE svg PUBLIC "-//W3C//DTD SVG 20010904//EN"
 "http://www.w3.org/TR/2001/REC-SVG-20010904/DTD/svg10.dtd">
<svg version="1.0" xmlns="http://www.w3.org/2000/svg"
 width="867.000000pt" height="185.000000pt" viewBox="0 0 867.000000 185.000000"
 preserveAspectRatio="xMidYMid meet">

<g transform="translate(0.000000,185.000000) scale(0.100000,-0.100000)"
fill="#000000" stroke="none">
<path d="M822 1835 c-71 -31 -719 -410 -751 -439 -71 -66 -71 -61 -71 -545 0
-466 2 -484 51 -544 34 -41 441 -279 508 -297 63 -17 119 0 241 71 l102 59
103 -59 c108 -64 173 -85 227 -74 43 8 88 31 298 152 195 113 250 161 269 235
7 30 11 181 11 449 0 458 -3 480 -69 545 -37 36 -673 410 -755 444 -51 21
-120 22 -164 3z m350 -531 c291 -168 272 -139 276 -423 4 -222 -2 -321 -19
-321 -6 0 -105 51 -222 114 -228 122 -273 140 -336 130 -23 -4 -141 -60 -270
-129 -173 -91 -231 -118 -236 -108 -3 8 -5 127 -5 264 0 272 3 292 56 340 16
14 121 79 233 143 272 155 236 155 523 -10z m0 -676 c219 -116 228 -122 211
-139 -20 -20 -467 -279 -481 -279 -9 0 -398 222 -466 267 l-39 25 137 74 c298
160 327 174 369 174 33 0 85 -23 269 -122z"/>
<path d="M2830 961 l0 -452 88 3 87 3 0 417 0 418 -27 27 c-22 22 -39 27 -88
31 l-60 4 0 -451z"/>
<path d="M5160 961 l0 -452 88 3 87 3 5 220 c4 185 8 225 23 252 48 89 170 94
231 10 19 -26 21 -46 26 -255 l5 -227 88 -3 87 -3 0 249 c0 288 -7 329 -69
391 -44 44 -110 67 -191 65 -65 -2 -114 -20 -162 -63 l-36 -31 -3 120 c-5 148
-12 159 -113 167 l-66 6 0 -452z"/>
<path d="M6595 1399 c-3 -8 -4 -210 -3 -449 l3 -435 88 -3 87 -3 0 420 0 420
-23 26 c-18 22 -34 27 -84 32 -48 4 -64 3 -68 -8z"/>
<path d="M7337 1403 c-4 -3 -7 -67 -7 -142 l0 -135 -27 26 c-49 45 -93 62
-163 63 -88 0 -149 -25 -199 -82 -61 -68 -76 -124 -76 -278 0 -114 3 -136 23
-181 29 -64 82 -116 147 -146 40 -18 68 -22 145 -23 123 0 178 16 240 72 80
72 83 88 88 442 4 337 1 354 -54 377 -35 15 -106 19 -117 7z m-72 -367 c46
-30 60 -71 60 -181 0 -110 -14 -151 -60 -181 -38 -25 -104 -28 -144 -7 -54 28
-76 81 -76 183 0 100 21 152 75 188 40 27 102 26 145 -2z"/>
<path d="M2355 1210 c-109 -16 -185 -71 -227 -164 -23 -50 -23 -59 -26 -428
l-3 -378 64 0 c49 0 71 5 88 19 23 18 24 25 27 176 l3 158 32 -31 c61 -59 143
-76 245 -50 69 17 145 96 169 174 26 84 25 268 -1 343 -47 135 -197 208 -371
181z m166 -187 c51 -58 62 -206 22 -291 -22 -47 -67 -72 -126 -72 -94 0 -143
85 -135 230 8 130 47 173 152 167 51 -3 63 -8 87 -34z"/>
<path d="M3271 1205 c-30 -9 -70 -27 -88 -41 -36 -27 -73 -90 -73 -124 0 -19
6 -20 85 -20 60 0 86 4 92 14 20 34 110 48 167 26 33 -12 50 -44 36 -69 -12
-23 -50 -36 -147 -50 -159 -24 -232 -74 -253 -176 -16 -79 2 -147 54 -199 50
-50 98 -66 199 -66 158 0 273 65 310 175 22 65 24 368 3 419 -19 45 -61 82
-116 101 -67 24 -203 28 -269 10z m224 -444 c-8 -55 -46 -95 -104 -111 -53
-14 -96 -5 -116 23 -40 57 3 126 90 145 28 6 68 17 90 25 40 14 40 14 43 -11
2 -14 1 -46 -3 -71z"/>
<path d="M3975 1207 c-66 -18 -103 -38 -142 -79 -55 -57 -76 -119 -81 -238
-11 -263 97 -394 323 -393 80 0 135 17 187 56 46 35 97 117 98 156 0 23 -2 23
-77 20 -72 -4 -82 -7 -122 -39 -35 -29 -51 -35 -90 -35 -61 0 -97 24 -123 82
-17 38 -20 61 -16 137 5 105 22 147 70 172 48 25 115 14 150 -25 27 -31 29
-31 122 -31 l95 0 -8 28 c-25 86 -76 144 -154 177 -51 21 -171 27 -232 12z"/>
<path d="M4683 1210 c-99 -21 -177 -88 -209 -181 -29 -82 -26 -273 4 -351 46
-115 149 -179 289 -180 100 0 166 24 223 81 43 43 87 131 72 145 -3 3 -35 6
-72 6 -56 0 -73 -4 -101 -25 -56 -41 -100 -57 -137 -51 -65 10 -101 49 -115
124 l-6 32 226 0 226 0 -5 88 c-13 206 -103 306 -288 317 -36 2 -84 0 -107 -5z
m152 -162 c25 -20 55 -73 55 -98 0 -6 -46 -10 -125 -10 -137 0 -140 2 -110 60
36 69 123 93 180 48z"/>
<path d="M6091 1204 c-136 -36 -211 -160 -211 -348 0 -168 61 -288 170 -334
87 -36 231 -33 309 8 50 26 96 76 123 135 18 40 23 73 26 166 5 134 -11 205
-59 276 -66 95 -215 136 -358 97z m173 -165 c48 -38 61 -75 60 -179 0 -146
-36 -199 -132 -200 -47 0 -58 4 -82 30 -36 38 -55 122 -47 207 10 107 55 163
132 163 28 0 51 -7 69 -21z"/>
<path d="M7795 1205 c-27 -8 -53 -14 -56 -15 -3 0 -27 -19 -53 -41 -82 -73
-112 -163 -104 -318 7 -118 34 -197 88 -251 102 -102 322 -111 434 -18 42 34
102 146 87 161 -5 5 -42 8 -83 6 -64 -4 -78 -8 -113 -36 -96 -77 -205 -37
-230 85 l-7 32 228 0 227 0 -5 88 c-4 52 -14 109 -27 142 -26 68 -89 133 -151
155 -64 23 -174 28 -235 10z m170 -157 c25 -20 55 -73 55 -98 0 -6 -46 -10
-125 -10 -137 0 -140 2 -110 60 36 69 123 93 180 48z"/>
<path d="M8549 1200 c-108 -18 -183 -71 -226 -158 -28 -57 -28 -58 -31 -294
l-4 -238 91 0 91 0 0 205 c0 229 7 262 59 289 17 9 55 16 86 16 l55 0 0 95 0
95 -37 -1 c-21 -1 -59 -5 -84 -9z"/>
</g>
</svg>
